<svg xmlns="http://www.w3.org/2000/svg" xmlns:xlink="http://www.w3.org/1999/xlink" id="Calque_1" x="0" y="0" version="1.1" viewBox="0 0 95 95" xml:space="preserve" style="enable-background:new 0 0 95 95"><style type="text/css">.st0{fill:#231f20}</style><path d="M47.5,0C21.3,0,0,21.3,0,47.5S21.3,95,47.5,95S95,73.7,95,47.5S73.7,0,47.5,0z M47.5,90C24.1,90,5,70.9,5,47.5	S24.1,5,47.5,5S90,24.1,90,47.5S70.9,90,47.5,90z M74,47.5l-1.8,1.8c0,0,0,0,0,0L49.3,72.2c-0.5,0.5-1.1,0.7-1.8,0.7	s-1.3-0.2-1.8-0.7c-1-1-1-2.6,0-3.5L64.4,50H24.5c-1.4,0-2.5-1.1-2.5-2.5s1.1-2.5,2.5-2.5h39.9L45.7,26.3c-1-1-1-2.6,0-3.5	c1-1,2.6-1,3.5,0l22.9,22.9c0,0,0,0,0,0L74,47.5z" class="st0"/></svg>